<?xml version="1.0" encoding="iso-8859-1"?>
<!-- Uploaded to: SVG Repo, www.svgrepo.com, Generator: SVG Repo Mixer Tools -->
<svg height="800px" width="800px" version="1.1" id="Layer_1" xmlns="http://www.w3.org/2000/svg" xmlns:xlink="http://www.w3.org/1999/xlink" 
	 viewBox="0 0 512.001 512.001" xml:space="preserve">
<path style="fill:#72D54A;" d="M260.981,267.309c10.165,7.117,12.658,21.257,5.54,31.422L126.446,498.78
	c-7.121,10.166-16.914,9.141-21.765-2.285l-16.967-39.946c-4.851-11.423-18.96-21.299-31.354-21.95l-43.337-2.281
	c-12.391-0.655-16.71-9.505-9.59-19.667l140.076-200.053c7.118-10.164,21.259-12.659,31.424-5.541L260.981,267.309z"/>
<path style="opacity:0.2;enable-background:new    ;" d="M194.868,221.014L45.705,434.034l10.655,0.565
	c12.395,0.651,26.503,10.527,31.354,21.95l3.978,9.367l149.01-212.807L194.868,221.014z"/>
<path style="fill:#72D54A;" d="M251.019,267.309c-10.165,7.117-12.658,21.257-5.541,31.422L385.555,498.78
	c7.119,10.166,16.914,9.141,21.765-2.285l16.968-39.948c4.85-11.423,18.96-21.299,31.353-21.95l43.337-2.281
	c12.392-0.655,16.711-9.505,9.59-19.667L368.491,212.597c-7.119-10.164-21.259-12.659-31.425-5.541L251.019,267.309z"/>
<path style="opacity:0.2;enable-background:new    ;" d="M317.133,221.014l149.164,213.02l-10.655,0.565
	c-12.393,0.651-26.503,10.527-31.353,21.95l-3.978,9.367L271.298,253.109L317.133,221.014z"/>
<path style="fill:#6E4C4B;" d="M307.987,10.53c0-3.65-2.459-4.945-5.468-2.873l-16.066,11.056
	c-3.007,2.071-7.863,1.979-10.792-0.198L261.327,7.851c-2.932-2.177-7.723-2.177-10.651,0.002l-14.332,10.66
	c-2.928,2.179-7.782,2.271-10.791,0.201L209.485,7.653c-3.007-2.07-5.465-0.774-5.465,2.876v59.726c0,3.65,2.985,6.635,6.634,6.635
	h90.696c3.649,0,6.636-2.985,6.636-6.635V10.53H307.987z"/>
<path style="fill:#B88C1D;" d="M214.988,394.522c-9.591,0-22.532-5.977-28.752-13.282l-50.331-59.089
	c-6.219-7.3-11.309-21.129-11.309-30.722V84.164c0-9.597,7.851-17.443,17.443-17.443h227.928c9.592,0,17.442,7.847,17.442,17.443
	v207.263c0,9.595-5.091,23.423-11.311,30.725l-50.328,59.089c-6.22,7.306-19.162,13.282-28.757,13.282H214.988z"/>
<path style="fill:#6E4C4B;" d="M346.71,119.046c0-6.395-5.231-11.629-11.629-11.629H176.926c-6.398,0-11.629,5.235-11.629,11.629
	V282.26c0,6.392,3.392,15.612,7.539,20.477l35.966,42.229c4.145,4.868,12.771,8.855,19.167,8.855h56.063
	c6.398,0,15.023-3.985,19.171-8.855l35.965-42.229c4.148-4.865,7.54-14.086,7.54-20.477V119.046H346.71z"/>
<path style="fill:#B88C1D;" d="M318.309,145.945c0-3.408-2.789-6.202-6.201-6.202H199.892c-3.411,0-6.2,2.794-6.2,6.202v32.733
	c0,3.408,2.789,6.198,6.2,6.198h112.217c3.412,0,6.201-2.79,6.201-6.198v-32.733H318.309z"/>
<path style="opacity:0.2;enable-background:new    ;" d="M300.153,238.814h-88.3c-4.529,0-8.2-3.67-8.2-8.2
	c0-4.529,3.67-8.2,8.2-8.2h88.3c4.528,0,8.2,3.67,8.2,8.2C308.352,235.144,304.681,238.814,300.153,238.814z"/>
<path style="opacity:0.2;enable-background:new    ;" d="M284.988,277.308h-57.974c-4.529,0-8.2-3.67-8.2-8.2s3.67-8.2,8.2-8.2
	h57.974c4.529,0,8.2,3.67,8.2,8.2S289.517,277.308,284.988,277.308z"/>
<g>
	<circle style="fill:#FFFFFF;" cx="327.592" cy="127.664" r="37.939"/>
	<path style="fill:#FFFFFF;" d="M323.887,209.462c0,11.502,9.322,20.824,20.824,20.824c11.499,0,20.822-9.321,20.822-20.824
		c0-11.497-9.322-20.821-20.822-20.821C333.209,188.641,323.887,197.965,323.887,209.462z"/>
</g>
</svg>