<?xml version="1.0" encoding="iso-8859-1"?>
<!-- Uploaded to: SVG Repo, www.svgrepo.com, Generator: SVG Repo Mixer Tools -->
<svg height="800px" width="800px" version="1.1" id="Layer_1" xmlns="http://www.w3.org/2000/svg" xmlns:xlink="http://www.w3.org/1999/xlink" 
	 viewBox="0 0 511.999 511.999" xml:space="preserve">
<path style="fill:#D25459;" d="M267.6,299.396c8.021,8.021,8.021,21.146,0,29.168L109.746,486.418
	c-8.023,8.023-16.676,5.544-19.231-5.512l-8.933-38.654c-2.554-11.053-13.687-22.185-24.74-24.738l-38.652-8.931
	c-11.052-2.555-13.533-11.209-5.511-19.228l157.853-157.858c8.023-8.021,21.147-8.021,29.169,0L267.6,299.396z"/>
<path style="fill:#F9BE00;" d="M215.431,247.227L47.339,415.316l9.502,2.198c11.053,2.553,22.186,13.685,24.74,24.738l2.095,9.062
	l167.923-167.92L215.431,247.227z"/>
<path style="opacity:0.1;enable-background:new    ;" d="M267.6,299.396l-67.899-67.899c-8.022-8.021-21.147-8.021-29.169,0
	l-56.982,56.984v6.499c0,14.005,6.59,31.906,15.669,42.563l46.005,54.014c4.267,5.009,10.095,9.419,16.562,12.818l75.813-75.811
	C275.621,320.541,275.621,307.417,267.6,299.396z"/>
<path style="fill:#D25459;" d="M205.897,212.764c-3.88,10.658-15.776,16.207-26.436,12.328L21.568,167.624
	c-10.66-3.877-15.055-15.262-9.768-25.303l13.065-24.792c5.286-10.036,11.578-27.318,13.976-38.405l5.931-27.393
	c2.401-11.085,13.085-16.982,23.746-13.1l157.893,57.468c10.66,3.877,16.207,15.774,12.327,26.436L205.897,212.764z"/>
<path style="fill:#F9BE00;" d="M39.9,74.247l-1.059,4.876c-2.4,11.087-8.691,28.368-13.976,38.405l-2.327,4.417l191.1,69.555
	L231,143.798L39.9,74.247z"/>
<path style="fill:#D25459;" d="M244.4,299.396c-8.021,8.021-8.021,21.146,0,29.168l157.856,157.854
	c8.022,8.023,16.675,5.544,19.23-5.512l8.933-38.654c2.554-11.053,13.687-22.185,24.74-24.738l38.652-8.931
	c11.051-2.555,13.533-11.209,5.512-19.228L341.467,231.497c-8.023-8.021-21.147-8.021-29.169,0L244.4,299.396z"/>
<path style="fill:#F9BE00;" d="M296.57,247.227l168.091,168.089l-9.502,2.198c-11.053,2.553-22.186,13.685-24.74,24.738
	l-2.095,9.062l-167.922-167.92L296.57,247.227z"/>
<path style="opacity:0.1;enable-background:new    ;" d="M244.4,299.396l67.899-67.899c8.022-8.021,21.146-8.021,29.169,0
	l56.982,56.984v6.499c0,14.005-6.59,31.906-15.669,42.563l-46.005,54.014c-4.267,5.009-10.095,9.419-16.562,12.818L244.4,328.563
	C236.379,320.541,236.379,307.417,244.4,299.396z"/>
<path style="fill:#D25459;" d="M306.104,212.764c3.88,10.658,15.776,16.207,26.436,12.328l157.892-57.468
	c10.66-3.877,15.055-15.262,9.768-25.303l-13.065-24.792c-5.286-10.036-11.578-27.318-13.976-38.405l-5.931-27.393
	c-2.401-11.085-13.084-16.982-23.745-13.1L285.589,96.099c-10.66,3.877-16.207,15.774-12.327,26.436L306.104,212.764z"/>
<path style="fill:#F9BE00;" d="M472.1,74.247l1.059,4.876c2.4,11.087,8.691,28.368,13.976,38.405l2.327,4.417L298.362,191.5
	l-17.362-47.702L472.1,74.247z"/>
<path style="fill:#A4A9AD;" d="M303.521,24.807c0-3.336-2.248-4.519-4.997-2.626l-14.686,10.107
	c-2.748,1.893-7.189,1.81-9.866-0.181l-13.104-9.748c-2.678-1.991-7.06-1.991-9.735,0.002l-13.102,9.743
	c-2.676,1.993-7.114,2.076-9.864,0.185l-14.686-10.111c-2.747-1.891-4.996-0.708-4.996,2.628v54.597
	c0,3.336,2.728,6.065,6.065,6.065h82.906c3.336,0,6.066-2.729,6.066-6.065V24.807H303.521z"/>
<path style="fill:#C3C6C8;" d="M219.033,376.338c-8.769,0-20.597-5.464-26.282-12.141l-46.007-54.014
	c-5.686-6.673-10.338-19.315-10.338-28.082V92.636c0-8.772,7.176-15.946,15.945-15.946h208.352c8.769,0,15.945,7.174,15.945,15.946
	v189.462c0,8.77-4.654,21.409-10.34,28.085l-46.006,54.014c-5.686,6.677-17.515,12.141-26.284,12.141H219.033z"/>
<path style="fill:#A4A9AD;" d="M339.441,124.524c0-5.845-4.782-10.63-10.63-10.63H184.24c-5.847,0-10.63,4.785-10.63,10.63V273.72
	c0,5.843,3.101,14.271,6.891,18.718l32.878,38.602c3.789,4.451,11.674,8.093,17.522,8.093h51.247c5.848,0,13.733-3.643,17.524-8.093
	l32.875-38.602c3.791-4.449,6.893-12.875,6.893-18.718L339.441,124.524L339.441,124.524z"/>
<path style="fill:#C3C6C8;" d="M312.958,148.592c0-3.116-2.551-5.669-5.669-5.669H204.711c-3.119,0-5.669,2.553-5.669,5.669v29.921
	c0,3.116,2.55,5.667,5.669,5.667h102.578c3.118,0,5.669-2.551,5.669-5.667V148.592z"/>
<path style="opacity:0.2;enable-background:new    ;" d="M296.361,233.959h-80.716c-4.403,0-7.971-3.568-7.971-7.971
	s3.568-7.971,7.971-7.971h80.716c4.403,0,7.971,3.568,7.971,7.971C304.331,230.391,300.763,233.959,296.361,233.959z"/>
<path style="opacity:0.2;enable-background:new    ;" d="M282.499,269.146h-52.995c-4.403,0-7.971-3.568-7.971-7.971
	c0-4.403,3.568-7.971,7.971-7.971h52.995c4.403,0,7.971,3.568,7.971,7.971C290.47,265.579,286.902,269.146,282.499,269.146z"/>
<path style="fill:#1E252B;" d="M504.958,383.72L384.617,263.374V214.62l108.54-39.507c7.35-2.674,12.881-7.985,15.574-14.955
	c2.693-6.973,2.169-14.627-1.479-21.553l-13.063-24.791c-4.938-9.375-11.001-26.032-13.239-36.377l-5.931-27.394
	c-1.656-7.644-6.171-13.842-12.715-17.454c-6.543-3.61-14.195-4.126-21.548-1.449L337.508,68.72h-26.015V24.807
	c0-4.582-2.143-8.444-5.73-10.33c-3.589-1.883-7.982-1.46-11.757,1.137l-14.577,10.031c-0.211,0.06-0.6,0.051-0.81-0.017
	L265.62,15.96c-5.49-4.081-13.766-4.077-19.246,0.003l-12.997,9.666c-0.207,0.066-0.594,0.073-0.807,0.015l-14.574-10.031
	c-3.772-2.597-8.166-3.022-11.756-1.136c-3.588,1.886-5.73,5.747-5.73,10.33V68.72h-26.02L71.244,31.141
	c-7.35-2.676-15.004-2.162-21.548,1.449s-11.059,9.808-12.715,17.455L31.05,77.437c-2.238,10.344-8.302,27.002-13.238,36.376
	L4.747,138.607c-3.647,6.925-4.171,14.578-1.478,21.551c2.693,6.972,8.224,12.282,15.572,14.955l109.592,39.889v47.321
	L7.045,383.718c-5.933,5.93-8.276,13.036-6.425,19.493c1.849,6.458,7.599,11.247,15.777,13.138l38.653,8.931
	c8.122,1.876,16.892,10.646,18.767,18.766l8.933,38.654c1.889,8.175,6.675,13.925,13.133,15.778c1.45,0.416,2.931,0.62,4.424,0.62
	c5.164,0,10.472-2.442,15.076-7.044l107.746-107.745h65.744l107.746,107.745c4.603,4.602,9.911,7.044,15.075,7.044
	c1.493,0,2.975-0.204,4.424-0.62c6.457-1.851,11.244-7.602,13.133-15.778l8.932-38.654c1.877-8.122,10.647-16.892,18.768-18.766
	l38.653-8.931c8.176-1.891,13.925-6.679,15.776-13.138C513.231,396.752,510.889,389.648,504.958,383.72z M446.208,46.121
	c2.96-1.079,5.942-0.926,8.394,0.426c2.452,1.352,4.169,3.792,4.836,6.87l5.931,27.393c2.531,11.696,9.132,29.833,14.716,40.434
	l13.063,24.79c1.469,2.79,1.722,5.767,0.712,8.38c-1.009,2.612-3.195,4.643-6.154,5.72l-103.089,37.522V92.636
	c0-8.423-4.382-15.838-10.982-20.101L446.208,46.121z M216.455,33.904l7.196,4.954c5.528,3.804,13.759,3.648,19.137-0.356
	l12.964-9.641c0.141-0.03,0.362-0.029,0.502,0.001l12.964,9.642c5.389,4.008,13.617,4.155,19.14,0.351l7.195-4.951v34.818h-79.096
	V33.904H216.455z M24.293,160.134c-2.958-1.077-5.144-3.108-6.152-5.72c-1.01-2.613-0.757-5.59,0.711-8.378l13.066-24.793
	c5.583-10.6,12.184-28.737,14.715-40.433l5.931-27.392c0.666-3.078,2.384-5.518,4.836-6.871c2.453-1.354,5.432-1.507,8.394-0.426
	l73.243,26.659c-6.389,4.298-10.602,11.594-10.602,19.857v105.402L24.293,160.134z M104.109,480.781
	c-2.191,2.19-3.658,2.398-3.832,2.373c-0.19-0.065-1.3-1.032-1.995-4.043l-8.933-38.654c-3.233-13.989-16.723-27.478-30.712-30.71
	l-38.651-8.931c-3.013-0.696-3.977-1.806-4.042-1.995c-0.045-0.196,0.186-1.645,2.371-3.829l110.235-110.238
	c0.776,10.264,5.816,23.194,12.124,30.598l46.006,54.013c4.131,4.85,10.419,9.018,17.134,11.711L104.109,480.781z M219.033,368.367
	c-6.418,0-16.052-4.451-20.214-9.339l-46.008-54.015c-4.492-5.273-8.434-15.981-8.434-22.913V92.636
	c0-4.398,3.577-7.975,7.974-7.975h208.352c4.397,0,7.974,3.577,7.974,7.975v189.462c0,6.931-3.943,17.64-8.437,22.916
	l-46.007,54.015c-4.161,4.888-13.797,9.337-20.215,9.337H219.033z M496.056,398.821c-0.065,0.19-1.029,1.3-4.041,1.996
	l-38.651,8.931c-13.99,3.232-27.48,16.72-30.713,30.71l-8.933,38.654c-0.695,3.011-1.805,3.977-1.993,4.042
	c-0.193,0.039-1.648-0.185-3.834-2.372l-99.417-99.416c6.998-2.678,13.61-6.966,17.895-11.999l46.006-54.014
	c6.111-7.176,11.034-19.535,12.041-29.632l109.27,109.272C495.87,397.176,496.1,398.626,496.056,398.821z M347.411,273.72V124.524
	c0-10.256-8.345-18.6-18.6-18.6H184.24c-10.256,0-18.6,8.345-18.6,18.6V273.72c0,7.734,3.781,18.003,8.793,23.888l32.877,38.601
	c5.289,6.212,15.431,10.896,23.591,10.896h51.247c8.159,0,18.301-4.684,23.592-10.895l32.873-38.6
	C343.629,291.724,347.411,281.453,347.411,273.72z M331.47,273.72c0,3.956-2.424,10.539-4.991,13.55l-32.874,38.602
	c-2.275,2.671-7.949,5.292-11.457,5.292h-51.248c-3.507,0-9.18-2.621-11.453-5.292l-32.879-38.603
	c-2.564-3.009-4.988-9.594-4.988-13.549V124.524c0-1.441,1.217-2.659,2.659-2.659h144.571c1.441,0,2.659,1.218,2.659,2.659
	L331.47,273.72L331.47,273.72z"/>
<g>
	<circle style="fill:#FFFFFF;" cx="321.444" cy="131.879" r="34.681"/>
	<path style="fill:#FFFFFF;" d="M318.056,206.653c0,10.514,8.523,19.034,19.034,19.034c10.512,0,19.034-8.521,19.034-19.034
		c0-10.51-8.523-19.032-19.034-19.032S318.056,196.144,318.056,206.653z"/>
</g>
</svg>